<svg width="28" height="29" viewBox="0 0 28 29" fill="none" xmlns="http://www.w3.org/2000/svg">
<path d="M19.8333 2.83337H8.16659C4.94492 2.83337 2.33325 5.44505 2.33325 8.66671V20.3334C2.33325 23.555 4.94492 26.1667 8.16659 26.1667H19.8333C23.0549 26.1667 25.6666 23.555 25.6666 20.3334V8.66671C25.6666 5.44505 23.0549 2.83337 19.8333 2.83337Z" stroke="#5D4908" stroke-width="2.33333" stroke-linecap="round" stroke-linejoin="round"/>
<path d="M18.6667 13.7651C18.8106 14.7361 18.6448 15.7277 18.1927 16.599C17.7406 17.4702 17.0253 18.1768 16.1485 18.6181C15.2718 19.0594 14.2782 19.213 13.3091 19.057C12.34 18.9011 11.4447 18.4435 10.7506 17.7495C10.0566 17.0554 9.599 16.1601 9.44306 15.191C9.28712 14.2219 9.44073 13.2283 9.88203 12.3515C10.3233 11.4748 11.0299 10.7595 11.9011 10.3074C12.7724 9.85531 13.764 9.68946 14.735 9.83344C15.7254 9.98031 16.6423 10.4418 17.3503 11.1498C18.0583 11.8578 18.5198 12.7747 18.6667 13.7651Z" stroke="#5D4908" stroke-width="2.33333" stroke-linecap="round" stroke-linejoin="round"/>
<path d="M20.4167 8.08337H20.4292" stroke="#5D4908" stroke-width="2.33333" stroke-linecap="round" stroke-linejoin="round"/>
</svg>
