<svg width="28" height="29" viewBox="0 0 28 29" fill="none" xmlns="http://www.w3.org/2000/svg">
<path d="M2.91667 20.3333C2.10167 16.4871 2.10167 12.5129 2.91667 8.66667C3.02376 8.27608 3.23067 7.92009 3.51705 7.63371C3.80343 7.34733 4.15942 7.14042 4.55001 7.03333C10.8074 5.9967 17.1927 5.9967 23.45 7.03333C23.8406 7.14042 24.1966 7.34733 24.483 7.63371C24.7693 7.92009 24.9763 8.27608 25.0833 8.66667C25.8983 12.5129 25.8983 16.4871 25.0833 20.3333C24.9763 20.7239 24.7693 21.0799 24.483 21.3663C24.1966 21.6527 23.8406 21.8596 23.45 21.9667C17.1927 23.0035 10.8073 23.0035 4.55001 21.9667C4.15942 21.8596 3.80343 21.6527 3.51705 21.3663C3.23067 21.0799 3.02376 20.7239 2.91667 20.3333Z" stroke="#5D4908" stroke-width="2.33333" stroke-linecap="round" stroke-linejoin="round"/>
<path d="M11.6667 18L17.5001 14.5L11.6667 11V18Z" stroke="#5D4908" stroke-width="2.33333" stroke-linecap="round" stroke-linejoin="round"/>
</svg>
