<svg width="853" height="119" viewBox="0 0 853 119" fill="none" xmlns="http://www.w3.org/2000/svg">
<g opacity="0.2">
<path d="M398.139 107.19C381.548 61.9691 249.789 53.2354 144.055 92.1567C128.221 96.5497 116.186 100.056 101.939 99.5539C94.4283 99.2894 87.5492 97.5127 81.5778 93.7047C63.4382 82.1372 67.4701 47.0244 95.3519 49.6997M95.3519 49.6997C96.1501 49.7763 96.9677 49.8838 97.805 50.0238M95.3519 49.6997C96.178 49.7367 96.9982 49.8475 97.805 50.0238M95.3519 49.6997C95.1819 49.6921 95.0116 49.6876 94.8412 49.6864M97.805 50.0238C98.0001 50.0564 98.1962 50.0908 98.3934 50.1269M97.805 50.0238C107.831 52.2151 115.778 64.5278 106.894 71.0515C100.617 75.6612 90.9611 72.0071 91.543 62.4921" stroke="black" stroke-width="3"/>
<path d="M454.39 107.19C470.981 61.9691 602.741 53.2354 708.475 92.1567C724.308 96.5497 736.344 100.056 750.59 99.5539C758.101 99.2894 764.98 97.5127 770.951 93.7047C789.091 82.1372 785.059 47.0244 757.177 49.6997M757.177 49.6997C756.379 49.7763 755.562 49.8838 754.724 50.0238M757.177 49.6997C756.351 49.7367 755.531 49.8475 754.724 50.0238M757.177 49.6997C757.347 49.6921 757.518 49.6876 757.688 49.6864M754.724 50.0238C754.529 50.0564 754.333 50.0908 754.136 50.1269M754.724 50.0238C744.698 52.2151 736.751 64.5278 745.635 71.0515C751.912 75.6612 761.568 72.0071 760.986 62.4921" stroke="black" stroke-width="3"/>
<path fill-rule="evenodd" clip-rule="evenodd" d="M434.91 56.939C437.169 51.277 438.59 43.0658 438.59 33.9293C438.59 27.1573 433.624 9.18591 427.498 3C421.373 9.18591 416.407 27.1573 416.407 33.9293C416.407 43.4093 417.936 51.8931 420.345 57.5666C396.796 40.7454 377.824 57.2971 365.979 61.873C382.126 61.2562 403.07 70.7982 415.398 82.9309C420.47 87.9233 424.446 93.5863 427.325 99.63C430.257 92.6202 434.617 86.0527 440.403 80.3579C452.241 68.7066 472.383 59.1502 487.899 59.2566C475.304 53.8185 457.188 40.8286 434.91 56.939Z" stroke="black" stroke-width="3"/>
<path d="M794.819 92.1593C800.665 93.8881 808.972 94.5481 818.07 93.7083C824.813 93.0858 844.485 85.4056 850.081 78.7373C833.869 74.1883 814.799 72.442 808.027 72.358C797.015 72.2215 803.417 79.1255 794.819 92.1593Z" stroke="black" stroke-width="3"/>
<path d="M58.3618 92.1593C52.5162 93.8881 44.2092 94.5481 35.1113 93.7083C28.368 93.0858 8.6966 85.4056 3.09994 78.7373C19.3123 74.1883 38.3822 72.442 45.1537 72.358C56.1665 72.2215 49.7638 79.1255 58.3618 92.1593Z" stroke="black" stroke-width="3"/>
<path d="M58.3618 92.1593C52.5162 93.8881 44.2092 94.5481 35.1113 93.7083C28.368 93.0858 8.6966 85.4056 3.09994 78.7373C19.3123 74.1883 38.3822 72.442 45.1537 72.358C56.1665 72.2215 49.7638 79.1255 58.3618 92.1593Z" stroke="black" stroke-width="3"/>
</g>
</svg>
