<svg width="246" height="21" viewBox="0 0 246 21" fill="none" xmlns="http://www.w3.org/2000/svg">
<g opacity="0.34">
<path d="M193.58 10.7545L52.5591 10.7545" stroke="#084E91" stroke-width="0.836094" stroke-linecap="square"/>
<circle cx="198.179" cy="10.6151" r="2.78698" stroke="#084E91" stroke-width="0.836094"/>
<path d="M226.165 3.5083C221.538 8.00238 218.315 9.59886 211.417 10.7544C218.315 11.91 221.538 13.5065 226.165 18.0006L238.729 10.7544L226.165 3.5083Z" stroke="#084E91" stroke-width="0.836094"/>
<path d="M237.057 6.57397C233.573 8.94291 232.737 9.5003 228.417 10.7544C232.319 11.7299 233.852 12.8447 237.336 15.0743L245 10.7544L237.057 6.57397Z" stroke="#084E91" stroke-width="0.836094"/>
<path d="M202.27 5.39229C201.588 0.63368 208.026 -0.278851 210.279 2.75493C211.448 4.32912 211.682 6.1349 211 7.83976C210.591 8.86267 209.633 9.65637 208.743 10.0528C207.854 10.4492 206.063 10.7445 205.007 10.7544C206.063 10.7643 207.854 11.0549 208.743 11.4514C209.633 11.8478 210.591 12.6415 211 13.6644C211.682 15.3692 211.448 17.175 210.279 18.7492C208.026 21.783 201.588 20.8705 202.27 16.1119M202.27 5.39229C202.29 5.52851 202.315 5.66788 202.346 5.8104M202.27 5.39229C202.282 5.53354 202.308 5.67333 202.346 5.8104M202.27 5.39229C202.267 5.36322 202.266 5.33408 202.264 5.3049M202.346 5.8104C202.354 5.84361 202.361 5.87699 202.369 5.91053M202.346 5.8104C202.818 7.51383 205.139 8.79707 206.28 7.23429C207.086 6.13 206.347 4.49923 204.6 4.65904M202.27 16.1119C202.29 15.9756 202.315 15.8363 202.346 15.6937M202.27 16.1119C202.282 15.9706 202.308 15.8308 202.346 15.6937M202.27 16.1119C202.267 16.1409 202.266 16.1701 202.264 16.1992M202.346 15.6937C202.354 15.6605 202.361 15.6272 202.369 15.5936M202.346 15.6937C202.818 13.9903 205.139 12.7071 206.28 14.2699C207.086 15.3741 206.347 17.0049 204.6 16.8451" stroke="#084E91" stroke-width="0.836094"/>
<path d="M205.285 10.7545C204.189 10.7545 202.043 10.7545 202.231 10.7545" stroke="#084E91" stroke-width="0.836094"/>
<circle cx="47.8213" cy="10.8891" r="2.78698" transform="rotate(180 47.8213 10.8891)" stroke="#084E91" stroke-width="0.836094"/>
<path d="M19.8343 17.9958C24.4615 13.5018 27.6846 11.9053 34.583 10.7497C27.6846 9.59412 24.4615 7.99763 19.8343 3.50356L7.27062 10.7497L19.8343 17.9958Z" stroke="#084E91" stroke-width="0.836094"/>
<path d="M8.94289 14.9302C12.4266 12.5612 13.2627 12.0038 17.5825 10.7497C13.6807 9.77426 12.1479 8.65947 8.66419 6.42989L0.999996 10.7497L8.94289 14.9302Z" stroke="#084E91" stroke-width="0.836094"/>
<path d="M43.7297 16.1119C44.4118 20.8705 37.9742 21.783 35.7211 18.7492C34.5519 17.175 34.318 15.3692 35 13.6644C35.4091 12.6415 36.3667 11.8478 37.2563 11.4514C38.1459 11.0549 39.9366 10.7596 40.9931 10.7497C39.9366 10.7398 38.1459 10.4492 37.2563 10.0528C36.3667 9.65638 35.4091 8.86267 35 7.83976C34.318 6.13491 34.5519 4.32913 35.7211 2.75493C37.9742 -0.278846 44.4118 0.633683 43.7297 5.3923M43.7297 16.1119C43.7102 15.9756 43.6848 15.8363 43.6534 15.6937M43.7297 16.1119C43.7173 15.9706 43.6913 15.8308 43.6534 15.6937M43.7297 16.1119C43.7323 16.1409 43.7342 16.1701 43.7356 16.1993M43.6534 15.6937C43.646 15.6605 43.6384 15.6272 43.6304 15.5936M43.6534 15.6937C43.1818 13.9903 40.8607 12.7071 39.72 14.2699C38.9139 15.3741 39.6523 17.0049 41.4002 16.8451M43.7297 5.3923C43.7102 5.52852 43.6848 5.66789 43.6534 5.81041M43.7297 5.3923C43.7173 5.53355 43.6913 5.67334 43.6534 5.81041M43.7297 5.3923C43.7323 5.36322 43.7342 5.33409 43.7356 5.3049M43.6534 5.81041C43.646 5.84362 43.6384 5.87699 43.6304 5.91054M43.6534 5.81041C43.1818 7.51384 40.8607 8.79708 39.72 7.23429C38.9139 6.13001 39.6523 4.49924 41.4002 4.65905" stroke="#084E91" stroke-width="0.836094"/>
<path d="M40.7144 10.7496C41.8107 10.7496 43.9564 10.7496 43.7684 10.7496" stroke="#084E91" stroke-width="0.836094"/>
</g>
</svg>
